<?xml version="1.0" encoding="UTF-8"?><svg xmlns="http://www.w3.org/2000/svg" xmlns:xlink="http://www.w3.org/1999/xlink" width="1012.5" zoomAndPan="magnify" viewBox="0 0 1012.5 487.499991" height="487.499991" preserveAspectRatio="xMidYMid meet" version="1.0"><defs><clipPath id="clip-0"><path d="M 0.269531 0 L 1011.730469 0 L 1011.730469 487 L 0.269531 487 Z M 0.269531 0 " clip-rule="nonzero"/></clipPath><clipPath id="clip-1"><path d="M 562 0 L 1011.730469 0 L 1011.730469 487 L 562 487 Z M 562 0 " clip-rule="nonzero"/></clipPath><clipPath id="clip-2"><path d="M 0.269531 0 L 874 0 L 874 487 L 0.269531 487 Z M 0.269531 0 " clip-rule="nonzero"/></clipPath><clipPath id="clip-3"><path d="M 0.269531 0 L 643 0 L 643 487 L 0.269531 487 Z M 0.269531 0 " clip-rule="nonzero"/></clipPath></defs><g clip-path="url(#clip-0)"><path fill="rgb(100%, 100%, 100%)" d="M 0.269531 0 L 1012.230469 0 L 1012.230469 493.988281 L 0.269531 493.988281 Z M 0.269531 0 " fill-opacity="1" fill-rule="nonzero"/><path fill="rgb(100%, 100%, 100%)" d="M 0.269531 0 L 1012.230469 0 L 1012.230469 487.242188 L 0.269531 487.242188 Z M 0.269531 0 " fill-opacity="1" fill-rule="nonzero"/><path fill="rgb(84.709167%, 21.569824%, 44.709778%)" d="M 0.269531 0 L 1012.230469 0 L 1012.230469 487.242188 L 0.269531 487.242188 Z M 0.269531 0 " fill-opacity="1" fill-rule="nonzero"/></g><g clip-path="url(#clip-1)"><path fill="rgb(98.81897%, 40.388489%, 100%)" d="M 562.882812 0.00390625 L 1011.894531 0.00390625 L 1011.894531 487.234375 L 562.882812 487.234375 Z M 562.882812 0.00390625 " fill-opacity="1" fill-rule="nonzero"/></g><g clip-path="url(#clip-2)"><path fill="rgb(82.749939%, 56.469727%, 97.24884%)" d="M 567.949219 -86.25 L 873.988281 262.519531 L 37.847656 996.207031 L -268.1875 647.433594 Z M 567.949219 -86.25 " fill-opacity="1" fill-rule="nonzero"/></g><g clip-path="url(#clip-3)"><path fill="rgb(45.489502%, 19.999695%, 59.609985%)" d="M 343.640625 -343.882812 L 642.972656 -0.203125 L 5.9375 554.632812 L -293.394531 210.957031 Z M 343.640625 -343.882812 " fill-opacity="1" fill-rule="nonzero"/></g></svg>