<?xml version="1.0" encoding="UTF-8"?><svg xmlns="http://www.w3.org/2000/svg" xmlns:xlink="http://www.w3.org/1999/xlink" width="1012.5" zoomAndPan="magnify" viewBox="0 0 1012.5 487.499991" height="487.499991" preserveAspectRatio="xMidYMid meet" version="1.0"><defs><clipPath id="clip-0"><path d="M 0.269531 0 L 1011.730469 0 L 1011.730469 487 L 0.269531 487 Z M 0.269531 0 " clip-rule="nonzero"/></clipPath><clipPath id="clip-1"><path d="M 673 0 L 1011.730469 0 L 1011.730469 487 L 673 487 Z M 673 0 " clip-rule="nonzero"/></clipPath><clipPath id="clip-2"><path d="M 0.269531 0 L 1011.730469 0 L 1011.730469 487 L 0.269531 487 Z M 0.269531 0 " clip-rule="nonzero"/></clipPath><clipPath id="clip-3"><path d="M 0.269531 0 L 643 0 L 643 487 L 0.269531 487 Z M 0.269531 0 " clip-rule="nonzero"/></clipPath><clipPath id="clip-4"><path d="M 0.269531 0 L 1011.730469 0 L 1011.730469 487 L 0.269531 487 Z M 0.269531 0 " clip-rule="nonzero"/></clipPath></defs><g clip-path="url(#clip-0)"><path fill="rgb(100%, 100%, 100%)" d="M 0.269531 0 L 1012.230469 0 L 1012.230469 493.988281 L 0.269531 493.988281 Z M 0.269531 0 " fill-opacity="1" fill-rule="nonzero"/><path fill="rgb(100%, 100%, 100%)" d="M 0.269531 0 L 1012.230469 0 L 1012.230469 487.242188 L 0.269531 487.242188 Z M 0.269531 0 " fill-opacity="1" fill-rule="nonzero"/><path fill="rgb(84.709167%, 21.569824%, 44.709778%)" d="M 0.269531 0 L 1012.230469 0 L 1012.230469 487.242188 L 0.269531 487.242188 Z M 0.269531 0 " fill-opacity="1" fill-rule="nonzero"/></g><g clip-path="url(#clip-1)"><path fill="rgb(98.81897%, 40.388489%, 100%)" d="M 673.707031 0.0078125 L 1012.527344 0.0078125 L 1012.527344 487.234375 L 673.707031 487.234375 Z M 673.707031 0.0078125 " fill-opacity="1" fill-rule="nonzero"/></g><g clip-path="url(#clip-2)"><path fill="rgb(82.749939%, 56.469727%, 97.24884%)" d="M 706.191406 -85.121094 L 1012.230469 263.648438 L 176.089844 997.335938 L -129.945312 648.566406 Z M 706.191406 -85.121094 " fill-opacity="1" fill-rule="nonzero"/></g><g clip-path="url(#clip-3)"><path fill="rgb(45.489502%, 19.999695%, 59.609985%)" d="M 343.640625 -341.066406 L 642.972656 2.613281 L 5.9375 557.449219 L -293.394531 213.773438 Z M 343.640625 -341.066406 " fill-opacity="1" fill-rule="nonzero"/></g><g clip-path="url(#clip-4)"><path fill="rgb(82.749939%, 56.469727%, 97.24884%)" d="M 721.183594 -70.128906 L 1027.21875 278.640625 L 191.082031 1012.328125 L -114.953125 663.558594 Z M 721.183594 -70.128906 " fill-opacity="1" fill-rule="nonzero"/></g></svg>